# xmcd
#
# Track frame offsets:
#   150
#   3139
#   16899
#   20791
#   34315
#   47875
#   60774
#   76466
#   89318
#   105750
#   116060
#   126854
#   139681
#   147486
#   173253
#   178603
#   190098
#   203116
#   206692
#   221278
#   233589
#   240706
#   258366
#   275762
#   280221
#
# Disc length: 4148 seconds
#
# Revision: 0
# Processed by: cddbd v1.4PL0 Copyright (c) Steve Scherf et al.
# Submitted via: uFREEDB test app, uFREEDB ActiveX ver 1.5.0
#
DISCID=55103219
DTITLE=Sum 41 - Ronnie
DYEAR=2002
DGENRE=Alternative
TTITLE0=Untitled Track 01
TTITLE1=Untitled Track 02
TTITLE2=Untitled Track 03
TTITLE3=Untitled Track 04
TTITLE4=Untitled Track 05
TTITLE5=Untitled Track 06
TTITLE6=Untitled Track 07
TTITLE7=Untitled Track 08
TTITLE8=Untitled Track 09
TTITLE9=Untitled Track 10
TTITLE10=Untitled Track 11
TTITLE11=Untitled Track 12
TTITLE12=Untitled Track 13
TTITLE13=Untitled Track 14
TTITLE14=Untitled Track 15
TTITLE15=Untitled Track 16
TTITLE16=Untitled Track 17
TTITLE17=Untitled Track 18
TTITLE18=Untitled Track 19
TTITLE19=Untitled Track 20
TTITLE20=Untitled Track 21
TTITLE21=Untitled Track 22
TTITLE22=Untitled Track 23
TTITLE23=Untitled Track 24
TTITLE24=Untitled Track 25
EXTD=Mine
EXTT0=
EXTT1=
EXTT2=
EXTT3=
EXTT4=
EXTT5=
EXTT6=
EXTT7=
EXTT8=
EXTT9=
EXTT10=
EXTT11=
EXTT12=
EXTT13=
EXTT14=
EXTT15=
EXTT16=
EXTT17=
EXTT18=
EXTT19=
EXTT20=
EXTT21=
EXTT22=
EXTT23=
EXTT24=
PLAYORDER=
